bicep_curl
version=1
nRows=272
nColumns=3
inDegrees=yes

# SIMM Motion File Header:
name bicep_curl
datacolumns 3
datarows 272
otherdata 1
range 0.0000 0.2710
endheader
time	/jointset/r_shoulder/r_shoulder_elev/value	/jointset/r_elbow/r_elbow_flex/value
0.0000	0.0000	50.6800
0.0010	0.0000	50.7998
0.0020	0.0000	50.9195
0.0030	0.0000	51.0393
0.0040	0.0000	51.1590
0.0050	0.0000	51.2788
0.0060	0.0000	51.3986
0.0070	0.0000	51.5183
0.0080	0.0000	51.6381
0.0090	0.0000	51.7578
0.0100	0.0000	51.8776
0.0110	0.0000	51.9973
0.0120	0.0000	52.1171
0.0130	0.0000	52.2369
0.0140	0.0000	52.3566
0.0150	0.0000	52.4764
0.0160	0.0000	52.5961
0.0170	0.0000	52.7159
0.0180	0.0000	52.8357
0.0190	0.0000	52.9554
0.0200	0.0000	53.0752
0.0210	0.0000	53.1949
0.0220	0.0000	53.3147
0.0230	0.0000	53.4345
0.0240	0.0000	53.5542
0.0250	0.0000	53.6740
0.0260	0.0000	53.7937
0.0270	0.0000	53.9135
0.0280	0.0000	54.0333
0.0290	0.0000	54.1530
0.0300	0.0000	54.2728
0.0310	0.0000	54.3925
0.0320	0.0000	54.5123
0.0330	0.0000	54.6320
0.0340	0.0000	54.7518
0.0350	0.0000	54.8716
0.0360	0.0000	54.9913
0.0370	0.0000	55.1111
0.0380	0.0000	55.2308
0.0390	0.0000	55.3506
0.0400	0.0000	55.4704
0.0410	0.0000	55.5901
0.0420	0.0000	55.7099
0.0430	0.0000	55.8296
0.0440	0.0000	55.9494
0.0450	0.0000	56.0692
0.0460	0.0000	56.1889
0.0470	0.0000	56.3087
0.0480	0.0000	56.4284
0.0490	0.0000	56.5482
0.0500	0.0000	56.6680
0.0510	0.0000	56.7877
0.0520	0.0000	56.9075
0.0530	0.0000	57.0272
0.0540	0.0000	57.1470
0.0550	0.0000	57.2667
0.0560	0.0000	57.3865
0.0570	0.0000	57.5063
0.0580	0.0000	57.6260
0.0590	0.0000	57.7458
0.0600	0.0000	57.8655
0.0610	0.0000	57.9853
0.0620	0.0000	58.1051
0.0630	0.0000	58.2248
0.0640	0.0000	58.3446
0.0650	0.0000	58.4643
0.0660	0.0000	58.5841
0.0670	0.0000	58.7039
0.0680	0.0000	58.8236
0.0690	0.0000	58.9434
0.0700	0.0000	59.0631
0.0710	0.0000	59.1829
0.0720	0.0000	59.3027
0.0730	0.0000	59.4224
0.0740	0.0000	59.5422
0.0750	0.0000	59.6619
0.0760	0.0000	59.7817
0.0770	0.0000	59.9014
0.0780	0.0000	60.0212
0.0790	0.0000	60.1410
0.0800	0.0000	60.2607
0.0810	0.0000	60.3805
0.0820	0.0000	60.5002
0.0830	0.0000	60.6200
0.0840	0.0000	60.7398
0.0850	0.0000	60.8595
0.0860	0.0000	60.9793
0.0870	0.0000	61.0990
0.0880	0.0000	61.2188
0.0890	0.0000	61.3386
0.0900	0.0000	61.4583
0.0910	0.0000	61.5781
0.0920	0.0000	61.6978
0.0930	0.0000	61.8176
0.0940	0.0000	61.9373
0.0950	0.0000	62.0571
0.0960	0.0000	62.1769
0.0970	0.0000	62.2966
0.0980	0.0000	62.4164
0.0990	0.0000	62.5361
0.1000	0.0000	62.6559
0.1010	0.0000	62.7757
0.1020	0.0000	62.8954
0.1030	0.0000	63.0152
0.1040	0.0000	63.1349
0.1050	0.0000	63.2547
0.1060	0.0000	63.3745
0.1070	0.0000	63.4942
0.1080	0.0000	63.6140
0.1090	0.0000	63.7337
0.1100	0.0000	63.8535
0.1110	0.0000	63.9733
0.1120	0.0000	64.0930
0.1130	0.0000	64.2128
0.1140	0.0000	64.3325
0.1150	0.0000	64.4523
0.1160	0.0000	64.5720
0.1170	0.0000	64.6918
0.1180	0.0000	64.8116
0.1190	0.0000	64.9313
0.1200	0.0000	65.0511
0.1210	0.0000	65.1708
0.1220	0.0000	65.2906
0.1230	0.0000	65.4104
0.1240	0.0000	65.5301
0.1250	0.0000	65.6499
0.1260	0.0000	65.7696
0.1270	0.0000	65.8894
0.1280	0.0000	66.0092
0.1290	0.0000	66.1289
0.1300	0.0000	66.2487
0.1310	0.0000	66.3684
0.1320	0.0000	66.4882
0.1330	0.0000	66.6080
0.1340	0.0000	66.7277
0.1350	0.0000	66.8475
0.1360	0.0000	66.9672
0.1370	0.0000	67.0870
0.1380	0.0000	67.2067
0.1390	0.0000	67.3265
0.1400	0.0000	67.4463
0.1410	0.0000	67.5660
0.1420	0.0000	67.6858
0.1430	0.0000	67.8055
0.1440	0.0000	67.9253
0.1450	0.0000	68.0451
0.1460	0.0000	68.1648
0.1470	0.0000	68.2846
0.1480	0.0000	68.4043
0.1490	0.0000	68.5241
0.1500	0.0000	68.6439
0.1510	0.0000	68.7636
0.1520	0.0000	68.8834
0.1530	0.0000	69.0031
0.1540	0.0000	69.1229
0.1550	0.0000	69.2427
0.1560	0.0000	69.3624
0.1570	0.0000	69.4822
0.1580	0.0000	69.6019
0.1590	0.0000	69.7217
0.1600	0.0000	69.8414
0.1610	0.0000	69.9612
0.1620	0.0000	70.0810
0.1630	0.0000	70.2007
0.1640	0.0000	70.3205
0.1650	0.0000	70.4402
0.1660	0.0000	70.5600
0.1670	0.0000	70.2875
0.1680	0.0000	70.0151
0.1690	0.0000	69.7426
0.1700	0.0000	69.4702
0.1710	0.0000	69.1977
0.1720	0.0000	68.9253
0.1730	0.0000	68.6528
0.1740	0.0000	68.3804
0.1750	0.0000	68.1079
0.1760	0.0000	67.8354
0.1770	0.0000	67.5630
0.1780	0.0000	67.2905
0.1790	0.0000	67.0181
0.1800	0.0000	66.7456
0.1810	0.0000	66.4732
0.1820	0.0000	66.2007
0.1830	0.0000	65.9283
0.1840	0.0000	65.6558
0.1850	0.0000	65.3834
0.1860	0.0000	65.1109
0.1870	0.0000	64.8384
0.1880	0.0000	64.5660
0.1890	0.0000	64.2935
0.1900	0.0000	64.0211
0.1910	0.0000	63.7486
0.1920	0.0000	63.4762
0.1930	0.0000	63.2037
0.1940	0.0000	62.9313
0.1950	0.0000	62.6588
0.1960	0.0000	62.3863
0.1970	0.0000	62.1139
0.1980	0.0000	61.8414
0.1990	0.0000	61.5690
0.2000	0.0000	61.2965
0.2010	0.0000	61.0241
0.2020	0.0000	60.7516
0.2030	0.0000	60.4792
0.2040	0.0000	60.2067
0.2050	0.0000	59.9343
0.2060	0.0000	59.6618
0.2070	0.0000	59.3893
0.2080	0.0000	59.1169
0.2090	0.0000	58.8444
0.2100	0.0000	58.5720
0.2110	0.0000	58.2995
0.2120	0.0000	58.0271
0.2130	0.0000	57.7546
0.2140	0.0000	57.4822
0.2150	0.0000	57.2097
0.2160	0.0000	56.9372
0.2170	0.0000	56.6648
0.2180	0.0000	56.3923
0.2190	0.0000	56.1199
0.2200	0.0000	55.8474
0.2210	0.0000	55.5750
0.2220	0.0000	55.3025
0.2230	0.0000	55.0301
0.2240	0.0000	54.7576
0.2250	0.0000	54.4851
0.2260	0.0000	54.2127
0.2270	0.0000	53.9402
0.2280	0.0000	53.6678
0.2290	0.0000	53.3953
0.2300	0.0000	53.1229
0.2310	0.0000	52.8504
0.2320	0.0000	52.5780
0.2330	0.0000	52.3055
0.2340	0.0000	52.0331
0.2350	0.0000	51.7606
0.2360	0.0000	51.4881
0.2370	0.0000	51.2157
0.2380	0.0000	50.9432
0.2390	0.0000	50.6708
0.2400	0.0000	50.3983
0.2410	0.0000	50.1259
0.2420	0.0000	49.8534
0.2430	0.0000	49.5810
0.2440	0.0000	49.3085
0.2450	0.0000	49.0360
0.2460	0.0000	48.7636
0.2470	0.0000	48.4911
0.2480	0.0000	48.2187
0.2490	0.0000	47.9462
0.2500	0.0000	47.6738
0.2510	0.0000	47.4013
0.2520	0.0000	47.1289
0.2530	0.0000	46.8564
0.2540	0.0000	46.5840
0.2550	0.0000	46.3115
0.2560	0.0000	46.0390
0.2570	0.0000	45.7666
0.2580	0.0000	45.4941
0.2590	0.0000	45.2217
0.2600	0.0000	44.9492
0.2610	0.0000	44.6768
0.2620	0.0000	44.4043
0.2630	0.0000	44.1319
0.2640	0.0000	43.8594
0.2650	0.0000	43.5869
0.2660	0.0000	43.3145
0.2670	0.0000	43.0420
0.2680	0.0000	42.7696
0.2690	0.0000	42.4971
0.2700	0.0000	42.2247
0.2710	0.0000	41.9522
